<?xml version="1.0" encoding="iso-8859-1"?>
<!-- Generator: Adobe Illustrator 19.0.0, SVG Export Plug-In . SVG Version: 6.00 Build 0)  -->
<svg xmlns="http://www.w3.org/2000/svg" xmlns:xlink="http://www.w3.org/1999/xlink" version="1.1" id="Layer_1" x="0px" y="0px" viewBox="0 0 512 512" style="enable-background:new 0 0 512 512;" xml:space="preserve" width="512" height="512">
<linearGradient id="SVGID_1_" gradientUnits="userSpaceOnUse" x1="0" y1="256" x2="512" y2="256">
	<stop offset="0" style="stop-color:#00F2FE"/>
	<stop offset="0.0208" style="stop-color:#03EFFE"/>
	<stop offset="0.2931" style="stop-color:#24D2FE"/>
	<stop offset="0.5538" style="stop-color:#3CBDFE"/>
	<stop offset="0.7956" style="stop-color:#4AB0FE"/>
	<stop offset="1" style="stop-color:#4FACFE"/>
</linearGradient>
<path style="fill:url(#SVGID_1_);" d="M256,512c-11.046,0-20-8.954-20-20V327c0-11.046,8.954-20,20-20s20,8.954,20,20v165  C276,503.046,267.046,512,256,512z M276,185V20c0-11.046-8.954-20-20-20s-20,8.954-20,20v165c0,11.046,8.954,20,20,20  S276,196.046,276,185z M512,256c0-11.046-8.954-20-20-20H326c-11.046,0-20,8.954-20,20s8.954,20,20,20h166  C503.046,276,512,267.046,512,256z M205,256c0-11.046-8.954-20-20-20H20c-11.046,0-20,8.954-20,20s8.954,20,20,20h165  C196.046,276,205,267.046,205,256z M256,276c11.046,0,20-8.954,20-20c0-11.046-8.954-20-20-20c-11.046,0-20,8.954-20,20  C236,267.046,244.954,276,256,276z"/>















</svg>
