<?xml version="1.0" encoding="iso-8859-1"?>
<!-- Generator: Adobe Illustrator 19.0.0, SVG Export Plug-In . SVG Version: 6.00 Build 0)  -->
<svg version="1.1" id="Capa_1" xmlns="http://www.w3.org/2000/svg" xmlns:xlink="http://www.w3.org/1999/xlink" x="0px" y="0px"
	 viewBox="0 0 434.8 434.8" style="enable-background:new 0 0 434.8 434.8;" xml:space="preserve">
<g>
	<g>
		<polygon points="225.28,209.4 225.28,191.72 209.28,191.72 209.28,209.4 191.6,209.4 191.6,225.4 209.28,225.4 209.28,243.08 
			225.28,243.08 225.28,225.4 242.96,225.4 242.96,209.4 		"/>
	</g>
</g>
<g>
	<g>
		<path style="fill:green;" d="M402.8,209.4c-4.266-96.178-81.336-173.144-177.52-177.28v-32h-16v32C113.189,36.377,36.257,113.309,32,209.4H0v16h32
			c4.257,96.09,81.189,173.023,177.28,177.28v32h16v-32c96.091-4.257,173.023-81.19,177.28-177.28h32l0.24-16H402.8z M209.28,48.28
			v28.08c-18.628,0.928-36.88,5.58-53.68,13.68l6.96,14.4c14.643-7.004,30.514-11.08,46.72-12v29.52
			c-46.537,3.994-83.446,40.903-87.44,87.44H92.32c0.926-16.214,5.031-32.089,12.08-46.72L90,155.72
			c-8.098,16.801-12.75,35.053-13.68,53.68H48.16C52.346,122.209,122.089,52.466,209.28,48.28z M209.28,342.36
			c-16.206-0.924-32.075-5-46.72-12l-6.96,14.4c16.806,8.072,35.058,12.697,53.68,13.6v28.08
			c-87.162-4.182-156.894-73.88-161.12-161.04h28.08c0.93,18.627,5.582,36.879,13.68,53.68l14.4-6.96
			c-7.022-14.637-11.099-30.511-12-46.72h29.52c3.994,46.537,40.903,83.446,87.44,87.44V342.36z M209.28,270.04v26.72
			c-37.713-3.855-67.542-33.651-71.44-71.36h26.72v-16h-26.72c3.862-37.74,33.7-67.578,71.44-71.44v26.72h16v-26.72
			c37.74,3.862,67.578,33.7,71.44,71.44h-26.8v16h26.8c-3.862,37.74-33.7,67.578-71.44,71.44v-26.8H209.28z M225.28,386.52v-28.16
			c18.627-0.933,36.879-5.584,53.68-13.68l-6.96-14.4c-14.646,6.996-30.515,11.072-46.72,12v-29.44
			c46.537-3.994,83.446-40.903,87.44-87.44h29.52c-0.918,16.216-5.023,32.092-12.08,46.72l14.4,7.04
			c8.108-16.825,12.76-35.106,13.68-53.76h28.08C382.138,312.562,312.44,382.294,225.28,386.52z M358.24,209.4
			c-0.935-18.627-5.586-36.878-13.68-53.68l-14.4,6.96c7.047,14.632,11.152,30.506,12.08,46.72h-29.52
			c-3.994-46.537-40.903-83.446-87.44-87.44V92.44c16.211,0.951,32.08,5.054,46.72,12.08l6.96-14.4
			c-16.801-8.098-35.053-12.749-53.68-13.68V48.28c87.191,4.186,156.934,73.929,161.12,161.12H358.24z"/>
	</g>
</g>
<g>
</g>
<g>
</g>
<g>
</g>
<g>
</g>
<g>
</g>
<g>
</g>
<g>
</g>
<g>
</g>
<g>
</g>
<g>
</g>
<g>
</g>
<g>
</g>
<g>
</g>
<g>
</g>
<g>
</g>
</svg>
